<svg width="22" height="22" viewBox="0 0 22 22" fill="none" xmlns="http://www.w3.org/2000/svg">
<path d="M20.5156 9.59374L14.5691 7.43749L12.4062 1.48437C12.2997 1.1973 12.1078 0.949725 11.8564 0.774892C11.6051 0.600059 11.3062 0.506348 11 0.506348C10.6938 0.506348 10.3949 0.600059 10.1435 0.774892C9.89215 0.949725 9.7003 1.1973 9.59374 1.48437L7.43749 7.43093L1.48437 9.59374C1.1973 9.7003 0.949725 9.89215 0.774892 10.1435C0.600059 10.3949 0.506348 10.6938 0.506348 11C0.506348 11.3062 0.600059 11.6051 0.774892 11.8564C0.949725 12.1078 1.1973 12.2997 1.48437 12.4062L7.43093 14.5625L9.59374 20.5156C9.7003 20.8027 9.89215 21.0503 10.1435 21.2251C10.3949 21.3999 10.6938 21.4936 11 21.4936C11.3062 21.4936 11.6051 21.3999 11.8564 21.2251C12.1078 21.0503 12.2997 20.8027 12.4062 20.5156L14.5691 14.5681L20.5156 12.4062C20.8027 12.2997 21.0503 12.1078 21.2251 11.8564C21.3999 11.6051 21.4936 11.3062 21.4936 11C21.4936 10.6938 21.3999 10.3949 21.2251 10.1435C21.0503 9.89215 20.8027 9.7003 20.5156 9.59374ZM14.0534 13.1562C13.8482 13.2312 13.6618 13.3501 13.5074 13.5046C13.3529 13.659 13.234 13.8454 13.1591 14.0506L11 19.9906L8.84374 14.0534C8.76884 13.8474 8.64969 13.6603 8.49468 13.5053C8.33968 13.3503 8.15258 13.2311 7.94656 13.1562L2.00937 11L7.94656 8.84374C8.15258 8.76884 8.33968 8.64969 8.49468 8.49468C8.64969 8.33968 8.76884 8.15258 8.84374 7.94656L11 2.00937L13.1562 7.94656C13.2312 8.15177 13.3501 8.33814 13.5046 8.49262C13.659 8.64711 13.8454 8.76598 14.0506 8.84093L19.9878 10.9972L14.0534 13.1562Z" fill="#8381D9"/>
</svg>
